<?xml version="1.0" encoding="utf-8"?>
<!-- Generator: Adobe Illustrator 19.0.0, SVG Export Plug-In . SVG Version: 6.00 Build 0)  -->
<svg version="1.1" id="Layer_1" xmlns="http://www.w3.org/2000/svg" xmlns:xlink="http://www.w3.org/1999/xlink" x="0px" y="0px"
	 viewBox="0 0 500 500" style="enable-background:new 0 0 500 500;" xml:space="preserve">
<style type="text/css">
	.st0{clip-path:url(#XMLID_115_);}
</style>
<g id="XMLID_1_">
	<g id="XMLID_5_">
		<defs>
			<polygon id="XMLID_4_" points="67.5,337.8 432.5,337.8 432.5,162.2 67.5,162.2 67.5,337.8 			"/>
		</defs>
		<clipPath id="XMLID_115_">
			<use xlink:href="#XMLID_4_"  style="overflow:visible;"/>
		</clipPath>
		<path id="XMLID_6_" class="st0" d="M213.6,314.1c-0.8-1.5-1.9-2.3-3.7-2.3c-1.8,0-3.8,1.3-3.8,3.5c0,1.9,1.8,2.9,3.2,3.5l1.6,0.7
			c3.3,1.4,5.7,3.3,5.7,7.3c0,4.4-3.2,7.6-7.3,7.6c-3.7,0-6.6-2.9-7.1-6.8l2.9-0.6c0,2.7,2,4.6,4.4,4.6c2.5,0,4.2-2.2,4.2-4.8
			c0-2.6-2-3.8-3.9-4.6l-1.6-0.7c-2.6-1.2-5-2.8-5-6.2c0-4,3.3-6.3,6.7-6.3c2.5,0,4.6,1.3,5.9,3.7L213.6,314.1z"/>
		<polygon id="XMLID_7_" class="st0" points="225.9,333.9 223,333.9 223,312.2 217.6,312.2 217.6,309.4 231.3,309.4 231.3,312.2 
			225.9,312.2 		"/>
		<path id="XMLID_8_" class="st0" d="M236,309.4v14.4c0,4,1.1,7.7,5.5,7.7c4.4,0,5.5-3.7,5.5-7.7v-14.4h2.8v15.4
			c0,5.4-3.1,9.5-8.4,9.5c-5.2,0-8.4-4.1-8.4-9.5v-15.4H236z"/>
		<path id="XMLID_11_" class="st0" d="M256.4,331.1h1c5.8,0,10.8-2.3,10.8-9.4c0-7.1-5-9.4-10.8-9.4h-1V331.1z M253.6,309.4h4.7
			c7,0,12.8,3.9,12.8,12.1c0,8.3-5.7,12.3-12.9,12.3h-4.6V309.4z"/>
		<rect id="XMLID_12_" x="273.9" y="309.4" class="st0" width="2.8" height="24.4"/>
		<path id="XMLID_15_" class="st0" d="M300.5,321.6c0-5.4-3.8-9.9-9.1-9.9c-5.4,0-9.1,4.5-9.1,9.9c0,5.6,4.2,9.9,9.1,9.9
			C296.3,331.5,300.5,327.2,300.5,321.6 M303.3,321.6c0,7.3-5.4,12.7-12,12.7c-6.6,0-12-5.5-12-12.7c0-7,5.4-12.7,12-12.7
			C297.9,308.9,303.3,314.6,303.3,321.6"/>
		<path id="XMLID_16_" class="st0" d="M335.7,321.5v1c0,6.7-4.4,11.9-10.8,11.9c-6.4,0-11.5-5.9-11.5-12.7c0-7,5.3-12.8,11.8-12.8
			c3.5,0,7.1,1.7,9.3,4.7l-2,2c-1.6-2.4-4.4-4-7.2-4c-5.1,0-9.1,4.4-9.1,9.9c0,5.1,3.9,10,8.9,10c3.5,0,7.4-3.3,7.5-7.3h-5.9v-2.8
			H335.7z"/>
		<polygon id="XMLID_17_" class="st0" points="352,319.3 352,309.4 354.8,309.4 354.8,333.9 352,333.9 352,322.1 341.1,322.1 
			341.1,333.9 338.3,333.9 338.3,309.4 341.1,309.4 341.1,319.3 		"/>
		<rect id="XMLID_18_" x="358.9" y="309.4" class="st0" width="2.8" height="24.4"/>
		<path id="XMLID_22_" class="st0" d="M368.6,331.1h2.2c2.6,0,5.4-0.8,5.4-4.3c0-3.4-3.3-4.1-5.8-4.1h-1.8V331.1z M368.6,320.3h0.7
			c2.7,0,4.9-0.6,4.9-4.1c0-3.4-2.2-4-4.8-4h-0.8V320.3z M365.7,309.4h2.8c4.3,0,8.4,1.2,8.4,6.7c0,1.8-0.9,3.9-2.5,4.6v0.1
			c2.7,0.5,4.6,3.3,4.6,6.2c0,4.9-3.9,6.8-7.9,6.8h-5.3V309.4z"/>
		<polygon id="XMLID_23_" class="st0" points="385,331.1 392,331.1 392,333.9 382.2,333.9 382.2,309.4 385,309.4 		"/>
		<rect id="XMLID_24_" x="393.8" y="309.4" class="st0" width="2.8" height="24.4"/>
		<path id="XMLID_25_" class="st0" d="M170.8,293.2c7-2.8,14.9-10.3,18.3-20.4h-16.5v-3.7H194c-0.4,1.9-1.6,7.5-6.1,14.1
			c1.9,1.6,6.5,5.6,10.8,10.1l-3,3.2c-1.3-1.6-3.6-4.5-9.9-10.4c-2.2,2.7-6.6,7.6-12.7,10.3L170.8,293.2z"/>
		<path id="XMLID_26_" class="st0" d="M209.7,279.2c1.4,0.6,4,1.8,7.4,4.8c2.8-3.8,3.5-7.5,3.8-8.9h-11.1c-3.2,4.7-5.9,6.7-8.4,8.2
			l-2.4-2.9c5.6-3.1,8.5-7.2,10.6-13.3l3.9,0.8c-0.6,1.4-1,2.3-1.7,3.6h13.5c-0.8,5.3-3.6,20.9-22.3,25.6l-2-3.4
			c2.2-0.4,7.6-1.3,13.5-6.9c-3.2-3-6.1-4.5-7.3-5.1L209.7,279.2z"/>
		<path id="XMLID_32_" class="st0" d="M227.8,292c12-1.1,17.4-4.9,21.5-18.5l3.4,1.6c-4.3,12.9-9.7,19.2-24.1,20.9L227.8,292z
			 M251.6,271.7c-0.7-3.1-1.3-4.5-1.7-5.2l2.6-0.6c0.9,2,1.5,4.2,1.7,5L251.6,271.7z M247,272.4c-0.4-2.3-0.9-3.7-1.5-5.5l2.6-0.6
			c0.8,2,1.1,2.9,1.6,5.4L247,272.4z M234.9,283.6c-3.7-2.2-7.4-3.4-8.9-3.9l1.5-3.5c1.2,0.4,5.9,1.9,8.9,3.6L234.9,283.6z
			 M237.3,275.8c-3.2-1.7-6.1-2.9-8.9-3.7l1.5-3.6c4.8,1.5,7.2,2.7,9,3.6L237.3,275.8z"/>
		<path id="XMLID_38_" class="st0" d="M286,292c12-1.1,17.4-4.9,21.5-18.5l3.4,1.6c-4.3,12.9-9.7,19.2-24.1,20.9L286,292z
			 M309.9,271.7c-0.7-3.1-1.3-4.5-1.7-5.2l2.6-0.6c0.9,2,1.5,4.2,1.7,5L309.9,271.7z M305.3,272.4c-0.4-2.3-0.9-3.7-1.5-5.5l2.6-0.6
			c0.8,2,1.1,2.9,1.6,5.4L305.3,272.4z M293.2,283.6c-3.7-2.2-7.4-3.4-8.9-3.9l1.5-3.5c1.2,0.4,5.9,1.9,8.9,3.6L293.2,283.6z
			 M295.6,275.8c-3.1-1.7-6.1-2.9-8.9-3.7l1.5-3.6c4.8,1.5,7.2,2.7,9,3.6L295.6,275.8z"/>
		<path id="XMLID_41_" class="st0" d="M339.9,270.8c-0.2-1.4-0.8-3.6-1.4-4.9l2.6-0.5c0.6,1.7,0.9,2.7,1.3,4.8L339.9,270.8z
			 M336.6,265.6c0.6,1.4,0.9,2.6,1.3,4.7l-1,0.1v0.1h1.9c-0.5,14.8-7.5,23.2-19.4,25.9l-2-3.6c5.1-1.1,15.6-3.3,17.4-18.6h-20.1
			v-3.7H335c-0.3-1.7-0.6-2.7-1.2-4.5L336.6,265.6z"/>
		<path id="XMLID_44_" class="st0" d="M365.5,281c0,5.3-0.9,9.5-4.6,12.5c-2.9,2.4-5.8,3-12.3,3.7l-1.2-3.7
			c8.1-0.5,14.3-1.9,14.3-10.7V268h3.7V281z M349.4,287.1h-3.7v-18.5h3.7V287.1z"/>
		<path id="XMLID_47_" class="st0" d="M386,266.4c-0.3,1.1-0.5,2.3-1.3,4.3h13.7v3.4h-10.6v4.8h9.8v3.4h-9.8v4.9h9.8v3.3h-9.8v7.6
			h-3.4v-24h-1.2c-2.1,4.2-3.8,6.1-4.8,7.3l-2.2-2.9c3.5-3.6,5.5-9,6.3-12.5L386,266.4z M372.3,280.2L372.3,280.2
			c-1.1,1.5-2,2.3-2.9,3.2l-1.5-3.4c3.5-3.5,5.7-7.4,7.1-14l3.4,0.6c-0.4,1.6-1.2,4.5-2.7,7.8v23.6h-3.4V280.2z"/>
		<path id="XMLID_54_" class="st0" d="M407.4,276h15.5v-5.8h-15.5V276z M404.3,267H426v12.2h-21.7V267z M419.1,293.2h6.8v-8.1h-6.8
			V293.2z M401.2,282h12.4v15.7h-3v-1.4h-6.3v1.6h-3V282L401.2,282z M404.3,293.2h6.3v-8.1h-6.3V293.2z M416.1,282H429v16h-3v-1.6
			h-6.8v1.6h-3.1V282z"/>
		<path id="XMLID_55_" class="st0" d="M255.8,291.1c9.6-7,12.9-13.3,13.4-14.4l-13.5,0v-3.7h15.7v-5.7h3.5v5.7h7.2v3.8h-7.2l0,19.9
			h-3.6l0-16.9c0,0-2.9,6.9-13.5,14.5L255.8,291.1z"/>
		<line id="XMLID_56_" class="st0" x1="169.8" y1="302.8" x2="431.1" y2="302.8"/>
		<polyline id="XMLID_57_" class="st0" points="169.8,302.6 431.1,302.6 431.1,303 169.8,303 		"/>
		<path id="XMLID_58_" class="st0" d="M172.7,214.4v0.3l-0.6,0.2l-1.5,0L169,215l-0.1-0.2l0.7-0.4c1,0.2,1.9-0.3,2.9-0.1
			L172.7,214.4z"/>
		<path id="XMLID_61_" class="st0" d="M135.5,248.8l-0.3,0.3l-0.5,0.7l-0.4,0.4l-1.1,0.9l-1.1,0.7c-0.7,0.6-1.7,1.1-2.8,1.3
			l-1.4,0.2c-0.8-0.1-1.7-0.1-2.3-0.4l-0.7-0.2c-0.9-0.5-1.3-0.8-1.7-1.9l0-0.3h-0.1l-0.1-0.8l-0.1-0.2l-0.1-1.7v-0.3h0l0-1.3
			l0.1-0.3l0.1-0.3h0.1l0-0.4h0l0.1-0.3v-1.2l0.1-0.2l0.1-0.3l0.1-0.5h0.1l0-0.3h0l0.1-0.3V242h0.1l0.1-0.3h0.1l0.5-1l0.3-0.4
			c0.7-0.4,1.3-1.1,2.5-1.1l1.3-0.4c0.7,0,1.4,0.2,2.1,0.4l1.5,0.7l0.9,1h0.1l0.1,0.2h0.1l0.3,0.5c1.2,2.3,1.7,3.7,1.9,6.3l0,0.3
			h0.1V248.8z M137.8,248.9l-0.8-0.4l-0.2-0.2l-0.2-0.2l-0.1-0.5h-0.1l-0.1-1.4h0l-0.1-0.4l-0.1-0.6l-0.1-0.9H136l-0.1-0.4h0
			l-0.1-0.4l-0.1-0.4l-0.2-0.7h-0.1l-0.1-0.4c-1.1-2.7-1.7-3.3-4.6-4.1l-0.9-0.3c-0.9,0-2,0-2.8,0.3c-0.7-0.1-1,0.3-1.5,0.6
			l-1.2,0.8l-0.3,0.5l-0.1,0.3l-0.4,0.5l-0.2,0.2l-0.1,0.3h0l-0.1,0.3v0.1l-0.1,0.3h0l-0.1,0.5h-0.1v0.2l-0.1,0.6h-0.1l-0.1,0.7
			h-0.1l-0.1,0.4h0l-0.1,0.5h0l0,0.4h-0.1v0.3H122l0.1,0.5l-0.6,1h0l0,0.3l0,0.1l0.6,0.7H122v0.2l0,0.8l0.1,0.5l0.1,0.5l0,0.2h0.1
			l0,0.3l0.1,0.4l0.1,0.3l0.5,0.7l1,0.9l0.9,0.8c1,0.3,1.9,0.9,3.1,0.6c0.7-0.1,1.5-0.1,2-0.5l0.8-0.2l0.7-0.2l1.4-0.7l1-0.7
			c0.7-0.4,1-1,1.6-1.5l0.5-0.7l0.2-0.2l1.2-0.2L137.8,248.9"/>
		<polygon id="XMLID_62_" class="st0" points="111,240.2 111.1,240.2 111,240.2 111,240.3 111,240.3 110.8,241.1 110.7,241.1 
			110.6,241.6 110.6,241.6 110.5,242.2 110.5,242.2 110.4,242.5 110.3,243.1 110.3,243.1 110.3,243.3 110.2,243.3 110,243.8 
			109.7,243.5 109.6,243.3 109.7,243.3 109.7,242.4 109.8,242.4 109.9,242 109.9,242 110,241.6 110,241.6 110.1,241.2 110.1,241.2 
			110.3,240.7 110.3,240.5 110.5,240.3 110.5,240.2 110.5,240.1 110.8,239.9 		"/>
		<polygon id="XMLID_63_" class="st0" points="111.7,242.2 111.7,242.4 111.8,242.7 111.7,242.7 111.6,243.2 111.1,243.3 111,242.7 
			111.1,242.4 		"/>
		<polygon id="XMLID_64_" class="st0" points="112.8,242.9 112.9,243.1 112.9,243.6 112.7,243.8 112.2,243.3 112.2,243.1 112.3,243 
					"/>
		<polygon id="XMLID_65_" class="st0" points="114.4,243.8 114.5,244.2 114.3,244.4 113.8,244.2 113.7,243.9 113.7,243.5 
			114.2,243.5 		"/>
		<path id="XMLID_68_" class="st0" d="M126.4,246.6l-0.2-0.2l-0.1-0.5l0.2-0.1l0.1,0.1l0,0.2L126.4,246.6 M127.1,245.7l-0.1-0.7
			h-0.1l-0.1-0.7l-0.2-0.3l-0.5-0.5c-0.9-0.3-1.2,0.5-1.7,1l-0.2,0.3l-0.1,0.3h0v0.2l-0.1,0.3h-0.1l-0.1,1.3l0.1,1.2l0.1,0.2l0.7,1
			l1.2-0.1l0.4-0.2l0.4-0.8h0.1l0.1-0.3C127,247,127.2,246.5,127.1,245.7"/>
		<polygon id="XMLID_69_" class="st0" points="101.4,251.5 101.5,251.7 101.8,252.1 101.8,252.4 101.5,252.8 99.8,253.3 98.8,252.8 
			99,252.5 99,252.5 99.1,252.1 99.1,252.1 99.2,251.8 99.5,251.4 100.9,251.1 		"/>
		<path id="XMLID_72_" class="st0" d="M132.2,262.7c-1.2,0-2.4,0-3.6,0l-1.2-0.2l-0.2-0.2l0.2-0.1l2.7,0.3
			C130.8,262.3,131.5,262.7,132.2,262.7L132.2,262.7z M157.6,265.8c-1.1-0.4-2.4-0.4-3.4-0.8c-1-0.1-1.9-0.4-3-0.3l-1.1-0.2l-1-0.2
			c-0.8-0.2-1.6-0.2-2.4-0.3c-0.7-0.4-1.7-0.1-2.4-0.5c-1.2-0.1-2.1-0.6-3.3-0.5c-0.8,0-1.5-0.3-2.4-0.3c-0.9-0.3-1.9-0.1-2.8-0.3
			l-1.6-0.1c-1.1-0.1-2.3-0.3-3.5-0.1c-1-0.2-2.1-0.3-3.2-0.3l-1.4-0.2l-0.3,0.6h-0.1l0,0.3l0.7,0.8c0.9,0.2,1.9,0.6,2.9,0.3
			c0.8,0,1.6,0.1,2.3,0.1c0.7,0.1,1.5,0,2.2,0.2l1.4,0.1c0.9,0.1,1.9,0,2.8,0.1c0.7-0.2,1.3,0.2,2,0.2l2.5,0.2
			c0.9,0.3,1.9,0.1,2.8,0.3c0.8,0,1.6,0,2.3,0.2l1.7,0.2l1.4,0.3l1.2,0.2c0.9,0.3,2,0.3,2.8,0.6l1.5,0.3l1.3-0.2l0.1-0.1
			L157.6,265.8"/>
		<path id="XMLID_73_" class="st0" d="M121.6,266.5c0.9,0.3,2,0.1,2.9,0.5l1.3,0.3l0.8,0.3c0.7,0,1.5,0.3,2.2,0.3l0.6,0.7v0.4
			c-1.1-0.1-2.1-0.5-3.2-0.6l-1.4-0.3c-1.7-0.1-3.1-1-4.9-0.6l-1-0.7l-0.1-0.4l1.1,0.1L121.6,266.5"/>
		<path id="XMLID_76_" class="st0" d="M156.3,275c-0.8,0.3-1.6,0-2.3-0.1c-1.1-0.4-2.3-0.7-3.4-1.1v0l-1.5-0.3
			c-0.8-0.3-1.6-0.4-2.5-0.5l-1.4-0.4c-1.2-0.5-2.7-1-4-1.4c-1.3-0.2-2.3-0.7-3.4-1l-1.2-0.5l0-0.1c0.7-0.1,1.2,0.2,1.8,0.3
			c0.9,0.4,2,0.6,3,0.9l1,0.1c0.9,0.3,1.9,0.3,2.6,0.8c0.7,0.2,1.3,0.7,2.1,0.7c1,0.4,2.2,0.6,3.2,0.9l1.9,0.4
			c0.7,0.2,1.4,0.3,2.1,0.5l1,0.3l1.2,0.5h0L156.3,275z M158,275l-0.4-0.5l-1-0.7c-0.7,0-1-0.4-1.7-0.3c-0.5-0.3-1-0.6-1.7-0.6
			c-1.2-0.4-2.5-0.6-3.8-0.9l-1.4-0.6l-1.5-0.5l-1.1-0.4l-1.4-0.4c-1.7-0.5-3.4-0.7-5.2-1.2c-0.7-0.2-1.7-0.2-2.3-0.5
			c-2.9-0.4-5.5-1.3-8.3-1.8c-0.6-0.4-1.6-0.3-2.3-0.6l-0.7-0.1c-0.7-0.2-1.5-0.2-2.1-0.4l-0.7-0.1l-1.5-0.5
			c-0.7-0.4-1.7-0.1-2.4,0.2l-0.1,0.2l0.1,0.5l0.8-0.3l1.2,0.3c1,0.1,2,0.4,2.9,0.7l0.4,0.2l1,0.4c0.9,0.1,1.8,0,2.5,0.3
			c0.9,0.1,1.7,0.6,2.7,0.3l0.3,0.2c0.7,0,1.2,0.4,1.7,0.6l-0.6,0.3l-0.4,0.5l0.1,0.1c0.8,0.3,1.6,0.4,2.5,0.7
			c1,0.2,1.9,0.7,2.9,0.7c1.6,0.5,3.2,0.9,4.8,1.5c0.8,0.3,1.7,0.4,2.5,0.7l0.6,0.2c0.8,0.1,1.3,0.6,2.2,0.6
			c0.9,0.3,1.8,0.5,2.6,0.8l1.8,0.5c1.2,0.3,2.4,0.5,3.5,0.9c0.8,0.1,1.5,0,2.1,0.2l1.5-0.6V275"/>
		<polygon id="XMLID_77_" class="st0" points="100,270.7 100.1,271 99.8,271.2 98.3,271.1 98.2,270.7 98.4,270.4 99.6,270.3 		"/>
		<path id="XMLID_80_" class="st0" d="M143.2,282.4l-0.2-0.1l-1.7-0.8l-1.5-0.8l-1.5-0.8l-1.7-0.6c-0.8-0.4-1.7-0.5-2.4-1
			c-0.8-0.2-1.5-0.5-2.1-1l-1.2-0.4c-0.6-0.3-1.1-0.7-1.8-0.8l-0.9-0.3l-1.7-0.8l-0.7-0.5l0.2-0.3c1,0.1,1.7,0.7,2.7,0.9l0.4,0.1
			c0.9,0.4,1.9,0.6,2.7,1.1c0.7,0.2,1.4,0.5,2,0.8l1.4,0.7l0.9,0.5c0.7,0.3,1.5,0.6,2.1,1l1.3,0.6l0.9,0.3l1.8,1l1.2,0.9V282.4z
			 M147,284l-0.9-0.7l-0.9-0.9l-1.9-1.3c-0.8-0.7-2-1-2.8-1.7l-1.2-0.6l-0.5-0.2l-0.6-0.4c-0.7,0-0.9-0.5-1.5-0.7l-1.2-0.5l-1.6-0.6
			l-1.4-0.5l-1.2-0.5c-0.7-0.5-1.5-0.7-2.3-1c-0.8-0.1-1.4-0.4-2.1-0.6l-0.1-0.1l-1.8-0.1l-0.3,0.4l-0.1,0.4h0l0.2,0.6l0.9,0.8
			c1.1,0.4,2.2,1,3.3,1.4l1.6,0.7c0.6,0.5,1.6,0.5,2.2,0.9c0.6,0.6,1.6,0.5,2.3,1c1.1,0.1,1.7,0.9,2.8,1l0.1,0.1l1.5,0.7l1.1,0.4
			c0.9,0.3,1.8,0.6,2.4,1.2c0.7,0.1,1.2,0.4,1.9,0.6l0.6,0.4l1.4,0.1L147,284L147,284"/>
		<path id="XMLID_81_" class="st0" d="M116.2,289.4h0.1l0.2,0.3c0.6,0.3,1,0.7,1.7,0.8l0.7,0.6l0,0.4l-0.1,0.1l0.6,0.4
			c0.8,0.1,1.3,0.5,2,0.7l0.5,0.4l0.2,0.5l0.1,0.1l0.1,0.3l0.1,0.5h0.1c1.1,1.3,1.8,2.3,2.9,3.5l0.3,0.5h0.1
			c0.8,1.1,2.2,2.2,2.6,3.5l0.3,0.5c0.5,0.7,1.2,1.7,1.4,2.6l0.1,1.2l0.1,0.4h0l0.1,0.3l0.1,0.9h0.1l0.2,0.5l0.1,0.3
			c0.2,0.7,0.9,0.9,1.2,2l0.1,0.2l0.1,0.5l0.1,0.3l0.1,1.3l0.3,0.8l0.2,0.3l0.3,0.4l0.7,0.6l1,1l0.1,0.3l0.1,1.3h-0.1l-0.1,0.4h0
			l0,0.4h-0.1l0,0.1h0v0.1h0.1l0,1.8l0.1,1.6l0.1,0.9l0,0.4h0.1v0.2l0,0.6l0.1,0.3h0l0,1.5l0.3,0.4l0,0.5h-0.1l-0.1,0.4h-0.1l0,0.3
			h0l-0.1,0.4l-0.3,0.3l-0.3-0.2v-0.4h0.1l0.1-0.6l0.1-0.6v-0.2h0.1l0-0.4l-0.7-0.7l-0.1-0.4h0.1l0.1-0.4v-0.5h0v-0.4h0.1l-0.1-0.6
			l-0.1-0.3l-0.1-0.3l-0.1-0.1l-0.1-0.4h-0.1l0-1l0-0.6h0.1v-1h-0.1v-1.1h0.1V317h0.1l-0.2-1h-0.1l-0.1-0.2l-0.6-0.6l-0.6-0.6
			l-0.6-0.8l-0.1-0.3h-0.1l0-0.3l-0.1-0.8l-0.2-0.6l-0.1-0.5h-0.1l-0.1-0.7l-0.1-0.2l-0.1-0.3l-0.5-0.9h0l-0.1-0.2l-0.3-0.5
			l-0.1-0.2l-0.2-0.3h-0.1l-0.1-0.3l-0.1-0.4l0-0.3h-0.1l-0.1-0.8l-0.1-0.4l-0.1-1.2H129l-0.1-0.3l-0.3-0.6l-0.2-0.4h0l-0.1-0.2
			l-0.3-0.5h0l-0.2-0.3c-0.9-1.4-1.1-2-2.7-3.2l-0.7-0.9h0l-0.2-0.4c-1-1.7-2.1-1.7-2.7-3.4l-0.6-0.9h-0.1l-1-0.6l-1.5-0.7l0-0.3
			h-0.1l-0.2-0.4c-0.7,0-0.9-0.6-1.4-0.9l-1.3-0.7l-0.3-0.8l0.4-0.2L116.2,289.4"/>
		<path id="XMLID_84_" class="st0" d="M99.5,318l-0.1,1h-0.1l0,0.3h0l-0.1,1.1l0.1,0.1h0l0,1.1h-0.1l-0.1,0.4v0.1l-0.4,0.1l-0.4-0.2
			l-0.3-0.5l-0.1-0.2l-0.2-0.3l-0.1-0.4l-0.3-0.4l0-0.1l-0.7-1l-0.1-0.2l-0.3-0.6l0-0.3h-0.1l-0.3-0.4l-0.5-0.1l-0.2-0.2l-0.3-0.4
			l-1-0.9c-0.7-0.3-1.1-1-2.1-0.9l-1.2,0.4v0.1l-1.6-0.1l0-0.1l0-0.5l1.2-1.1l0.6-0.5l0.9-0.7l0.8-0.8l0.9-0.8l0.7-0.5
			c0.7-0.3,1.2-0.7,1.9-0.9l0.6,0.1l0.3,0.3l0.3,0.4l0.1,0.3l0.3,0.4l0.2,0.3l0.1,0.3l0.1,0.6h0.1l0.1,0.3l0.1,0.4l0.1,0.4h0.1
			l0.1,0.4l0.1,0.2l0.1,0.2l0.2,1.3h0.1l0.1,1.6h0L99.5,318L99.5,318L99.5,318z M100.1,317.2l-0.1-0.8l-0.1-0.8h0l-0.1-0.8h-0.1
			l-0.1-0.6h-0.1l-0.1-0.3l-0.1-0.8l-0.1-0.3h-0.1l-0.2-0.7l-0.1-0.4H99l-0.1-0.5l-0.1-0.3l-0.1-0.3l-0.1-0.3l-0.1-0.1l-1.1-1
			l-1-0.7c-1.1-0.3-1.9,0.5-2.5,1l-0.6,0.5l-1.2,0.5l-0.3,0.3l-0.3,0.3l-0.5,0.4l-0.6,0.5c-0.6,0.3-0.9,1-1.5,1.4l-0.3,0.3
			c-0.6,0.6-1.1,1.3-1.7,1.9v0.3h0.1l0,0.2l0.4,0.5c1.2,0.3,2.4-0.1,3.5-0.3l1.3-0.3c0.7-0.2,0.9,0.4,1.4,0.6l0.7,0.7l0.8,0.5l0,0.1
			H95c0.5,0.8,1.2,1.5,1.7,2.3l0.3,0.5h0.1l0.1,0.2l0.1,0.2h0.1l0.2,0.4h0.1l0.3,0.7l0.1,0.2l1.2,0.6l0.6-0.3l0.1-0.1l0-0.3l0.1-1.4
			h0.1v-0.6H100v-1h0.1v-0.4h0l0-0.4h0.1l0.1-0.6h0l0-0.3h0v-0.4L100.1,317.2"/>
		<path id="XMLID_87_" class="st0" d="M120.4,336.5l-0.2,0.2l-0.8-0.1c-1-0.8-1.8-1.8-2.6-2.8l-0.1-0.1c-0.4-0.5-1.2-0.7-2-0.6
			l-1.5-0.3c-0.8-0.2-1.4,0.3-2.2,0.1l-0.3-0.4l0,0h0l0-0.5l0.2-0.2l0.4-0.3l0.4-0.3l1.2-1v-0.1l0.3-0.4l0.9-1l0.6-0.5
			c0.5-0.6,1.1-1,2-1.2l1-0.1l0.9,0.8l0.2,0.2l0.1,0.2l0.3,0.8h0.1l0.1,0.3l0.1,0.2l0.1,0.3l0.1,0.5l0.1,0.4c0.2,0.7,0,1.8,0.2,2.5
			l0.1,0.5h0.1l0.1,1.5h0l0.1,0.8l0.1,0.5L120.4,336.5 M121.4,336.3l-0.1-1.2l-0.1-0.6h0l-0.1-0.4l0-0.1l-0.3-1.2h0v-0.1h0v-1
			l-0.1-1.3h-0.1l-0.1-0.6l-0.1-0.2l-0.1-0.3h-0.1l-0.1-0.4l-0.1-0.1l-0.1-0.3h0l-0.1-0.2l-0.3-0.3l-0.6-0.8l-1.2-1.1l-0.9-0.2
			c-0.9-0.2-1.3,0.5-2,0.7v0l-0.9,0.7l-1.5,1.5l-0.1,0.3v0.1l-0.1,0.2l-0.1,0.2l-0.9,1.1l-0.8,0.7l-0.4,0.6L110,332l-0.4,0.5v0.4
			l0.2,0.3c0.5,0.5,1.6,0.8,2.4,0.5l1,0l1.7,0.1l0-0.3h0.1l0,0.3h-0.1l0.1,0.3h0.2l1.1,0.4v0.1l0.5,0.5l0.1,0.3l0.5,0.7l0.1,0.2
			l0.5,0.6h0.1l0.5,0.5l1.4,0.4l1.2-0.2l0.2-0.4h0.1L121.4,336.3L121.4,336.3z"/>
		<path id="XMLID_88_" class="st0" d="M215.6,263.4l0,0.3l0.2,1.1l0.1,0.4l0.1,0.6h0.1l0.1,0.6h0.1l0.1,0.6h0.1l0.1,0.4h0.1l0,0.3
			l0.3,1h0l0,0.4l0.1,0.7h0.1l0.1,0.5h0.8l0-0.4h-0.1l0-0.3l-0.1-0.5h-0.1l-0.1-0.4h0l-0.1-0.4l-0.1-0.4l-0.1-0.7h-0.1l-0.1-0.4h0
			l-0.1-0.4l0-0.4l-0.1-0.2l-0.2-1.1l0-0.4h-0.1l-0.1-0.4l-0.1-0.2l-0.1-0.3h-0.1l-0.1-0.4h-0.1l-0.1-0.5l-0.2-0.6l-0.1-0.4h-0.1
			l-0.1-0.5l-0.1-0.3l-0.1-0.3l-0.1-0.3h0l-0.1-0.7h-0.1l-0.1-0.6l-0.1-0.4l-0.1-0.2h-0.1l-0.1-0.4l-0.1-0.3l-0.2-0.5l-0.1-0.3h-0.1
			l-0.2-0.7l-0.1-0.3h-0.1l-0.1-0.4h-0.1l-0.2-0.6l-0.1-0.2l-0.1-0.3h-0.1l-0.2-0.4l-0.1-0.4l-0.1-0.3l-0.2-0.6l-0.1-0.3l-0.2-0.5
			h-0.1l0-0.3l-0.1-0.3l-0.1-0.7h0l-0.1-0.5l-0.1-0.2l-0.1-0.3h-0.1l-0.1-0.5h0l-0.1-0.3l-0.1-0.4l-0.1-0.3h-0.1l-0.1-0.5l-0.1-0.3
			l-0.5-0.8l-0.3-0.4l-0.5-0.7l0.1-0.6l0.1-0.4h0l0-0.4l-0.3-0.7l-0.1-0.3h-0.1l-0.1-0.2h-0.1l-0.1-0.3h-0.1l-0.1-0.2h-0.1l-0.2-0.4
			c-1.3-1.7-2-3.3-3-5.1l-0.3-0.6h-0.1l-0.3-0.4c-0.6-0.8-1.2-1.7-2.1-2.3l-0.8-0.6l-1.1,0.4l0.2,0.5l1.2,0.7l1.2,1l0.6,0.6l0.8,0.8
			l-0.3,0.3l-0.4,0.4l-0.2,0.2l-0.1,0.1l0.1,0.3l0.1,0.1l1.2,0.4v0.1h0.1c0.8,1,1.5,2,2.3,3.1l0.1,0.3h0.1l0.4,0.7v0.3h-0.1
			l-0.1,0.4h-0.1l-0.3,0.5l-0.1,0.1l0,0.2l0.4,0.7l0.7,0.7l0,0.1l0.9,1l0.1,0.3h0.1l0.3,0.7l0.1,0.2l0.2,0.5h0.1l0.1,0.4l0.1,0.5
			l0.1,0.5l0.2,0.3l0.2,0.3h0l0.1,0.4h0.1l0.1,0.6h0l0.1,0.5h0.1l0.1,0.4l0.1,0.2l0.1,0.4l0.1,0.3l0.2,0.3l0.2,0.4h0.1l0.1,0.5
			c0.3,0.8,0.7,1.5,1,2.3l0.1,0.5h0.1l0.1,0.4l0.2,0.7h0.1l0.1,0.4h0.1l0.1,0.5h0.1l0.1,0.3l0.1,0.3l0.2,0.4l0.1,0.3h0.1l0.3,0.6
			l0.2,0.5l0.1,0.3h0.1l0.2,0.5l0.1,0.3L215.6,263.4L215.6,263.4z"/>
		<path id="XMLID_91_" class="st0" d="M125.4,203.6v0.3h-0.1l0,0.3h0l-0.1,0.3l-0.2,0.2l-0.5,0.6l-1.1-0.4l-0.3-0.4l-0.2-0.2
			l-0.1-0.3l-0.1-0.2l-0.1-0.4h0.1v-0.3h0l0-0.7l0.2-0.3l0.3-0.4l1.2-0.3l0.6,0.6l0.2,0.5h0.1l0.1,0.8L125.4,203.6L125.4,203.6z
			 M126.2,202.9l-0.1-0.8l-0.1-0.2l-0.2-0.4l0-0.1l-0.3-0.3l-0.5-0.5c-0.5-0.3-1.2,0-1.9-0.1l-0.5,0.4l-0.3,0.4l-0.3,0.7h0l-0.1,0.4
			h-0.1v0.6h0.1l0.1,0.9h0l0.1,0.7l0.1,0.3h0.1l0.2,0.5l0.6,0.1l1.8,0.2l0.3-0.3l0.4-0.6l0.1-0.2v-0.1l0.3-0.6h0.1L126.2,202.9"/>
		<path id="XMLID_100_" class="st0" d="M173.2,209.6L173.2,209.6l-0.5-0.4l-0.2-0.2l-0.5-0.7l0-0.1l-0.9-0.9l-0.9-0.7l-1-0.9
			l-0.2-0.3H169l0-0.1l-0.2-0.3l1.2,0.6c1.1,1.3,2.1,1.7,3,2.8l0.1,0.4h0.1V209.6L173.2,209.6 M172.5,212.7l-0.4-0.1l0.1-0.2
			l0.5-0.2l0,0.1L172.5,212.7 M147.9,209.1l-0.2-0.4l0.9-0.3l0.1,0.6L147.9,209.1 M142.1,209.5l-0.3,0.4l-1.3,0.9l-1.9,0.8
			c-1.1,0.2-1.9,0.8-2.9,1.1l-1.5,0.4l-1.7,0.9l-0.4,0.2c-1.1,0.2-2,0.7-2.8,1.2l-1.8,0.8c-1.5,1-2.9,2.1-3.9,3.6l-0.4,0.4l-1.2-0.4
			l-0.3-0.5l-0.1-0.3l-0.4-0.5l-0.1-0.2H121l-0.3-0.4l-0.3-0.5l-0.1-0.4l-0.2-0.4l-0.1-0.4h-0.1l-0.1-0.3l0-0.2h-0.1l-0.1-0.5
			l-0.1-0.5h-0.1l0-0.4l0-1.5l0.1-0.5l-0.1-0.6v-1.1h0l0.1-0.4V209h-0.1v-0.8h0.1l-0.1-0.7h0l-0.1-0.5h-0.1v-0.6l0.2-0.2l0.7-0.4
			l0.1-0.2l0.2-0.3v-0.6h0.1v-0.3h0.1l0-0.6h0l0-0.7l-0.2-1l-0.4-0.5l-0.6-0.2v-0.5h0l0-0.3h0.1l0.1-0.4h0.1l0.7-1.2l0.1-0.3
			l0.1-0.2l0.3-0.5l0.2-0.2l0.1-0.3h0.1l-0.1-0.4l-0.1-0.1l-0.2-0.3l-0.1-0.3h0v-0.2h0c-0.1-0.8,0.1-1.6,0-2.3l0.1,0l0-0.2h0
			l-0.1-0.9h-0.1l-0.1-0.5h-0.1l-0.1-0.6l0-0.3h-0.1l-0.1-0.5h-0.1l0-0.7c-0.2-0.7-0.1-1.7-0.1-2.6l0.1-1h0l0.1-0.3v-1.1h0.1
			l0.1-0.6h0v-0.5l0.1-0.1l0.2,0.2c0.4,1,0.8,1.9,1.3,2.8l0.2,0.8h0l0.1,0.5h0.1l0.1,0.3l0,0.1l0.1,0.4l0,0h0v0.9h-0.1l-0.1,0.7
			l0.1,0h-0.1l0.1,0h-0.1v0.2h0.1v0.1h-0.1v0.6h0l0,0.7h-0.1l0.1,1h-0.1v0.6h-0.1l0,1.2h0v0.9h0.1l0.2,0.2l0.6-0.6v-0.1h0v-0.7
			l0.1-1.1v-0.3h0l0-0.9v-0.5h0l0-0.6h0.1l0.1-0.6v-0.7h0l0-0.9h0l0,0h0l0.1-1.6h0l0.1-0.6v-0.3h0.1l0.1-0.4h0l0.1-0.5h0l0.1-0.7
			h0.1v-1h-0.1V184h0.1l0,0h0l0.1-0.4h0.1l0.1-0.5h0.1l0.1-0.4h0l0.1-0.3l0.1-0.1l0.5,0.7l0.1,0.3l0.2,0.3l0.1,0.2l0.1,0.5h0
			l0.1,0.3l0.1,0.3l0.1,0.2l0.1,0.6h0l0.1,0.3l0.1,0.1l0.1,0.3l0.1,0.5h0.1l0.1,0.4h0.1l0.1,0.4l0.3,0.5l0.1,0.3l0,0.3h0.1l0.1,0.6
			h0.1l0.1,0.9c0.1,1,0.1,2.1,0.8,2.8l0.5,0.6c0.5,0.5,0.9,1,1.8,1.2l1.2,0.8l0.9,0.8l0.2,0.4h0.1l0.1,0.2c0.5,0.9,0.8,1.8,1.4,2.6
			l0.3,0.3c1.7,3.3,1,1.7,3.2,3.9l0.3,0.5l0.6,1.1h0l0.1,0.4l0.1,0.4h0.1l0.1,0.6h0.1l0.1,0.3l0.2,0.4l0.1,0.2l0,0.1l1.6,0.8
			l0.2,0.6L142.1,209.5 M119,205.4l-0.1-0.3l-0.1-1.1l0.1-0.5h0l0.1-0.4l0.2-0.4l0.3-0.3l0.1,0.2l0.1,0.2l-0.5,1l0.2,0.3l0.3,0.2
			l0.1,0.1l0,0.4h-0.1l-0.3,0.4L119,205.4 M75.5,301.9l1.1-0.8c0.8-0.5,1.7-0.9,2.5-1.4l0.5,0.3l0,0.2l0.1,0.7l0.1,0.9h0v0.9h0
			l-0.1,1.2l0.1,0.3h0l0.1,0.5l0,0.4H80l0,1.5l0.1,1.3l0.1,1l0,0h0l0.1,0.1h-0.1l0,0.1h0l-0.1,0.5l-0.1,0.2l-0.2,0l-0.4-0.7
			l-0.1-0.1l-0.4-0.8l-0.3-0.4l-0.3-0.6h0l-0.3-0.4l-0.1-0.1c-0.2-0.5-0.9-0.5-1.6-0.5c-0.8,0.1-1.4,0.4-2.2,0.6l-1,0.5l-1.5,0.7
			l-0.4-0.1l-0.1-0.3h0l0.1-0.6l0.1-0.3l0.1-0.2v-0.3l0.2-0.2l0.2-0.6h0l0.1-0.3c1.8-2.5,1.1-0.7,2.7-2.6L75.5,301.9 M157,205.4
			L157,205.4l0.5-0.4h1.2v0.2l-0.4,0.3l-1.3,0.2L157,205.4z M204.2,234c-0.7-0.7-1.4-1.4-2-2.2l-0.4-1.2l-0.4-0.4l-0.2-0.3l-0.1-0.6
			l-1.2-1.6c-0.7-0.5-1.1-1.4-1.9-1.7l-1-0.8l-0.2-0.3l0.1-0.2l0.2-0.3v-0.5l-1.2-1l-0.6-0.6l-1.6-1.3c-0.7-0.4-1.5-0.8-2.3-0.8
			c-0.8-0.3-1.8-0.4-2.5-0.9l-1.6-0.7l-1.5-1l-0.6-0.5l-0.1-0.4l1.7,0.4l1-0.1l0.1-0.4l-0.2-0.3l-1.3-0.3l-1.4-0.2l-1.2-0.9l0.3-0.2
			l1.9,0.4l0.7,0.1c0.7,0.2,1.3,0.5,2,0.4l1.1-0.3l-0.1-0.3c-1.5-0.1-2.7-0.8-4.1-1l-1.4-0.5l0.7-0.3c0.9-0.1,1.6,0.2,2.4,0.2
			c1.4,0.2,2.7,0.6,3.9,1.2l1.5,0.7l0.5-0.3v-0.5l-0.4-0.3l-1.3-1c-0.8,0.2-1.2-0.6-2-0.5c-1.2-0.1-2.4-0.5-3.7-0.4l-1.5-0.2
			l-0.2-0.3l0.2-0.2l1.2-0.1c0.7-0.1,1.3-0.1,2-0.2c1-0.2,2.2-0.1,3.2,0.1l0.2-0.1v-0.3c-1.4-0.6-2.9-0.3-4.4-0.4l-1.8,0.1l-0.2-0.2
			l1.3-0.7c0.8-0.4,1.8-0.5,2.5-1.1c0.7-0.3,1.5-0.3,2.3-0.4l1.5-1.1l0.1-0.2l0.4-0.7l0.3-0.5l0.1-0.6h0l0-0.4l0-0.4l0.1-1l0-1
			l0.1,0l-0.1-0.7l0.1-0.4v-1.3l-0.1-0.1c0-0.6,0-1.6,0-2.4l0.1-0.4l-0.1-0.7l0.1-1.2l0.1-0.8l0.1,0c0-0.8,0-1.5,0.1-2.3l-0.1-0.3
			c-0.2-1.1,0-4.1-0.3-5.4l-0.1-0.7c0.1-0.7-0.1-1.3-0.1-2l-0.1-0.3l0.1-0.7l-0.1,0l-0.1-1.3l-0.1-0.3l-0.1-0.2v-0.7l-0.1,0
			l-0.1-0.9l-0.2-0.4l-0.1-0.6l-0.1-0.7l-0.1-0.8v-1.6l-0.1,0l0.1-0.1l-0.1,0l0.1-0.4h0l0-1l-0.1,0l-0.1-1c-0.4-2-0.5-4.1-1.2-6
			l-0.3-0.8c-0.3-0.7-0.4-1.8-0.9-2.4l-0.6-0.3l-1.6,0.4l-0.2,0.3l-0.2,0.3l-0.2,0.4l-0.2,0.3l-0.4,0.7l-0.5,1.1l-0.5,1.1l-0.3,0.5
			l-0.3,0.6l-0.2,0.3l-0.2,0.3c-0.3,0.8-0.9,1.3-1.3,1.9l-0.3,0.5l-0.6,0.9c-2,3.8-3.9,7.7-5.9,11.5l-0.2,0.4l-0.1,0.4
			c-1.2,5.3-3.2,8.7-5.6,13.5l-0.1,0.3l-0.3,0.4l0.1,0.4l0.1,1.8c0.4,0.7,1.1,1.3,1.6,1.9l0.6,0.8c0.3,1,1.3,1.9,1.2,3v0.3l-0.7-0.4
			l-1-0.8c-0.6-0.7-1.4-1.2-2.3-1.6c-0.3-0.3-0.6-1-1.3-0.7l-0.3,0.5l-0.3,0.2l-0.4,0.5c0.8,0.8,1.9,1.4,2.8,2.2l1.2,1l1.1,1.3
			l1,0.7l0.1,0.3l0.1,0.4l-0.1,0.2l-0.2,0.2l-0.6-0.3l-1.2-0.9l-0.8-0.7c-0.7-0.5-1.5-0.9-2.1-1.4l-1.1,0.2l0.7,0.7
			c0.7,0.6,1.5,0.9,2.2,1.4l0.2,0.4l-0.3-0.1c-1.4-0.1-2.6-0.6-4-0.8c-0.7,0-1.2-0.4-1.9-0.3c-0.8-0.4-1.9-0.2-2.7-0.6l-0.1-0.1
			l-0.4-0.2c-0.9,0.2-1.8,0.1-2.8,0.2l-0.6-0.1l-1.1-0.5l0.1-0.7c0.1-0.9,1.2-0.3,1.7-0.9c0.9,0,1.5-0.8,2.5-0.8l0.2-0.5l-1.4-0.2
			l0.1-0.1l0.3-0.3l1.5-0.6l-0.1-0.3l-0.6,0.1l-1.1,0.4c-0.8,0-1.5,0.1-2.3,0.2l-0.5-0.3l-0.6,0.8c-0.2,0.5,0.3,0.8-0.1,1.9
			l-0.2,1.4l-0.9,0.2c-0.9,0.2-1.9,0.1-2.8,0.3l-1.5,0.2l-0.3-1l0-0.6l0.1-0.6l0.1,0l-0.1-1.3l0.1-0.2l-0.1-0.2l0.1-0.6l0.2-0.3
			l0.1-0.5l0.1-0.6l0.1-0.4l-0.1-0.3l-0.1-0.7l-0.2-0.4l0-0.8l-1.5-1l-0.9-0.7c-0.7-1.3-0.6-2.1-0.2-3.4l0.1-0.3l0.2-0.4
			c0.5-1.2,0.9-2.4,1.2-3.6l0.1-0.5l0.4-1.7h0l0-0.3l0.1-0.6c0.6-1.9,1.4-3.7,2-5.6l0.2-0.4l0.1-0.3c1.7-4.7,3-6,5.5-9.8l1.1-1.3
			l0.7-0.7l0.3,0.3c0.4,1.4,0.6,2.8,0.9,4.2l-0.1,1.8l-0.1,0l0.2,0.4c0.2,1.4,0.3,2.8,0.4,4.2l0,1.1c0.2,0.9,0.3,1.2,0.4,2.2
			l0.1,0.3v0.9l0.1,0c-0.1,0.8,0.1,1.5,0.1,2.3l0.1,0.4l0.1,0.4v1.1l-0.1,0.5l0,0.8l-0.1,0.3l-0.1,0.8l-0.1,0.1l0,0.8l0,0.8l0.1,0.2
			l0.1,0.3l0.1,1l0.1,0.3l0.1,0.3l0.1,0.5l0.1,0.3l0.1,1.4h0l-0.1,0.6l-0.5,1.3c-0.6,0.7-1.4,1.4-2.5,1.4l-1.5,0.7l-0.8,0.8
			l-0.1,0.4l0.1,0.2l0,0.5l0.3,0.2c0.6-0.2,1.3-0.3,2-0.5l1-0.2l1.1-0.2l-1.5-0.5l-0.7,0l-0.1-0.2l1.5-0.8c0.7-0.4,1.3-0.9,1.8-1.4
			l0.3-0.5c0.6-0.6,0.4-1.9,0.4-2.6v-0.5l-0.1-0.4l-0.1-0.5V193l-0.1,0l-0.2-0.5v-1.9l0.1,0v-0.7l0.1-1.2l-0.1-0.3l-0.1-0.5v-2.1
			l0.1,0l-0.1-0.3c0.2-1.7-0.3-3.4-0.4-5.1l-0.1-0.5c-0.4-1.1,0-1.5-0.4-2.4l-0.1-0.8l-0.1-0.4c0.1-0.7-0.1-1.3,0-2l-0.1-0.6
			c-0.2-2.9-0.7-2.7-1.1-4.8l-0.1-0.4l-1.3,0l-0.6,0.7l-1,0.9l-0.1,0.1l-0.1,0.4l-0.2,0.3l-0.4,0.5l-0.8,1.3l-0.6,0.8
			c-1.2,1-1.2,2.3-2.4,3.6l-0.1,0.3l-0.2,0.4c-0.6,2-1.7,3.8-2.1,5.7l-0.3,0.7l-0.1,0.3l-0.2,0.4l-0.1,0.2c-0.6,2.3-1.4,2.9-1.6,5.6
			l-0.1,0.7l-0.1,0.2c-0.1,1.9-2,4.3-1.2,6.1l0.1,0.4l0.2,0.3l0.4,0.7c0.4,0.8,1.4,0.8,2.1,1.4l0.6,0.5l-0.5,1l-0.9-0.4
			c-0.9-0.2-1.5-0.8-2.3-1.2l-1.7-0.6l-0.6,0.3l0.8,0.7c0.7,0.1,1.4,0.3,1.8,0.8l-0.6,0.6l-0.4,0.6l1.7,0.1c0.8,0.2,1.8,0.1,2.4,0.7
			l-0.1,0.5l-1.9,0.2l-0.9,0.3l-0.1,0.2l1.1-0.1l1.6,0.1l0.1,0.7l-0.4,0.4c-0.7,0.2-1.5,0.3-2.2,0.4l-0.2,0.4l0.4,0.1l1.7-0.5
			l0.6,0.2v0.6l-0.6,0.6l-1.3,0.7l-1.7,0.7l-1.2,0.7l-0.7,0.1l0.1-0.7l0.1-0.4l-0.1-0.4l-0.1-0.3l-0.9-0.4l-1.5-0.3l-0.1-0.3
			l-0.1-0.4l-0.5-1.5l-0.1-0.2l-0.3-0.5c-0.3-0.9-1-1.5-1.7-2.2l-1.1-0.9c-1.9-2.5-2-3.7-3.6-5.9l-1.4-1.3c-1.1-0.4-2.2-0.9-2.9-1.9
			l-0.1-0.4l-0.1-0.4l-0.1-0.4l0-1l-0.2-0.5v-0.1l0.1-0.7l-0.1-0.3l-0.1-0.3l-0.1-0.5l-0.2-0.2l-0.2-0.6l-0.1-0.2l-0.2-0.5l-0.3-0.5
			l-0.2-0.5l0-0.4l-0.2-0.3l-0.5-1.3l-0.5-0.9l-0.1-0.4l-0.1-0.4l-0.1-0.3l-0.2-0.7l-0.1-0.2l-0.6-0.2l-0.4,0.4
			c-0.8,1.1-0.9,5.1-1.2,6.2l-0.3,0.1l-0.4-0.7c-0.5-1.1-0.9-2-1.3-3.2l-0.7-0.9l-0.5,0.1l-0.1,0.4l-0.1,0.6l-0.1,0.4l-0.1,0.7
			l-0.1,0.4l-0.1,1.5l-0.1,0v0.7l-0.1,0.6v1.5l0.1,0l-0.1,0.2v1.3l0.1,0l0.1,1c0.2,0.7,0.4,1.4,0.6,2.1l-0.1,0.7
			c0.1,0.8-0.1,1.5,0,2.4l0.1,0.5h0v1c-1.7,3.1-1.2,2.2-1.7,4.8l0,1l-0.1,0.1l0.1,0.5c0,1,0.2,2.2,0.3,3.3l0.1,0.5
			c0,0.7-0.1,1.1,0,1.9l-0.1,0l-0.1,0.5c-0.3,1.5-0.4,3,0.2,4.4l0.2,1h0l0.2,0.7l0.5,1.3l0.3,0.7l0.5,0.9l-0.8,0.9l-0.7,0.7
			l-0.5-0.1l0,0.1l-0.2-0.1l-0.6,0.5l-0.1-0.5l0.1-0.7l-0.4-0.3l-0.5,0.8l-0.3,0.8l-0.2,0.3c-1.2,0.9-1.6,2.8-2.6,4.1l-0.3,0.4
			l-0.1,0.4c-0.4,1-0.9,1.9-1.4,2.8l-0.5,0.8l-0.2,0.6l-0.2,0.3c-1.6,2.4-2.6,5.1-3,8.1l-0.1,0.4l-0.1,0.9h0l0,0.3l-0.1,0.3
			l-0.1,0.3l-0.1,0.8l-0.1,0.3l-0.9,1.3l-0.8,0.5l-1.1,0.5c-1.5,0.3-2.8,0.8-4.1,1.3l-0.5,0.4c-0.9,0-1.4,0.8-2,1.2v0.1l-0.2,0.3
			l-0.1,0.5l-0.2,0.4l-0.1,1v0.6l0.1,0.4l0.1,0.5l0,0.9l-0.3,0.6l-0.6,1.4l-0.2,0.9l-0.1,0.1l-0.5,1l-0.4-0.1l-1,0v0l-0.9-0.4
			l-1.2,0.3l0.1,0.4l0.4,0.2l1.6,0.5l1.2,0.6l0.2,0.3l0.1,0.6v1l-0.1,0.3l-0.2,0.3c-0.9,0.1-1.7,0.4-2.6,0.6c-1.1,0.3-2,0.8-3,1.2
			l-1.7,0.8l0,0.4l0.2,0.4l1.5-0.4l1.8-0.9c1.2-0.3,2.2-1,3.5-1.1l0.2,0.3l0.1,0.4l-0.1,0.5l-0.1,0.3l-0.1,0.3l-0.2,0.3l-0.1,0.5
			l-0.1,0.5l-0.1,0.2l-0.2,0.5l-1.2,0.8l-0.4,0.6l1.6-0.2l0.7,0.6l0.1,0.7l0.1,0.3l0.1,0.4l0.1,0.2l0.1,0.7L96,270l0.1,0.4l0.1,0.3
			l0.1,0.4l0.2,0.3l-0.1,0.4c-0.6,0.3-1.2,0.6-2,0.6l-1.1,0.4l-0.4,0.4l-0.1,0.5l0.1,0.8l0.1,0.3l-0.1,0l-0.6,0.9l-0.5,1.1l-0.4,0.7
			l-0.8,1.2l-0.9,0.5l-1.3,1.3l-0.4,0.6l-0.1,0.3l-0.1,0.3l-0.2,0.3l-1.2,1l-0.4,0.8c-0.3,0.9-1.3,1.3-1.8,2.1
			c-0.2,0.7-1.1,0.8-1.4,1.4c-0.8,0.5-1.2,1.2-1.9,1.7l-1.1,0.9l-1.1,0.5L79,291l-0.6,0.9c-0.7,0.4-1.2,1-1.7,1.6l-0.5,0.6l0.1,0.3
			l0.2,0.8l-0.1,0.2l-1.1,1.2L75,297l-0.5,0.8l-0.1,0.4l0.1,0.3l-0.1,0.5l-0.6,0.9l-0.4,0.6l-0.3,0.5l0,0.4l-0.1,0.6l-0.2,0.6
			l-1.1,1.3l-0.2,0.4l-0.1,0.3l-0.9,1.3l-0.3,0.8l-0.1,0.2l-0.1,0.5l-0.1,0.3l-0.1,0.4l-0.1,0.8l0,1.1l-0.1,0.2l0.1,0.4l-0.7,0.9
			c-0.5,1.6-0.6,1.3-1.1,2.4l0.1,0.2c0.5,0.9,0.1,3.3-0.3,4.2l0,0.6l0.3,0.2l0.3-0.5l0.1-0.6l0.1-0.5l0.1-0.3l0.1-0.3l0.1-0.5
			l-0.1-1.1l0.1-0.3l0.1-0.4l0.2-0.4l0.4-0.5v-0.4l0-0.4l0.1-0.3l1-1.3l0.7-0.7l0.2-0.3v-0.1l-0.5-0.9l0.2-0.1
			c0.8-0.3,1.5-0.8,2.3-0.8c0.8-0.4,1.8-1.2,2.8-0.7l1.5,1.2l0.3,0.5l0.1,0.3l0.1,0.3l1.1,1l1.1-0.2l0.5-0.9l0.1-0.4l0.1-0.4
			l0.1-0.3v-2.1l-0.1-0.6l-0.1-0.4l-0.1-0.8H81v-4.2l-0.1-0.4l-0.1-0.3l-0.1-0.3l-0.5-0.9l-1.8,0.3l-0.3,0.3l-1.5,0.8
			c-0.6,0.3-1.1,1-1.8,1l0.3-0.8l0.2-0.6l0.1-0.5l0.1-0.6c0.7-0.4,1.1-1,1.8-1.5l0.1-0.3l-0.6-0.1l-0.4,0.1l0.2-0.3l1.1-1.3
			c0.9-0.4,1.2-1.2,1.8-1.7l0.2-0.9l-0.7-0.1v-0.2c2.7-2.3,2.4-3.8,6.3-6.3l1.6-1.6c0.7,0,0.7-0.7,1.2-0.9c0.9-1.1,2.5-1.4,3.7-2.3
			c1.1-0.7,2.3-1,3.7-1.2l2-0.5l1-0.2l0.1,0.7l0.5,0.1c0.9,0.5,2,1,3.1,0.9c0.7-0.3,1.7-0.4,2.2,0.2c0.7,0.2,1.1,0.8,1.9,0.9
			l1.2,0.4l1.2,0.9l1,0.9c0.5,0.6,1.4,0.8,1.9,1.5l1.2,0.8l1,0.6c0.7,0.3,1.2,1,2,1.3l0.6-0.1l-0.4-0.8l-1.5-0.8l-1.8-1.1
			c-0.8-0.4-1.6-1-2.1-1.6l-1.4-1.2l-1.5-1.1c-0.8-0.1-1.5-0.6-2.2-0.8c-0.6-0.2-1.1-0.6-1.7-0.7l-1.5-0.1l-1.3-0.6
			c-0.7,0.2-0.7-0.6-1.3-0.7c-0.7-0.1-1.5-0.2-2.3-0.1c-0.8-0.1-1.3,0.7-2.1,0.3c-0.6,0-1.2,0.3-1.8,0.4c-0.8,0.3-1.6,0.6-2.3,1.1
			l-1.2,0.6l-1.2,0.3l0.1-0.4c0.4-0.8,1.4-1.1,2.1-1.8l0.3,0l0.8-0.9l0.1-0.4l0.1-0.2l0.5-0.6l0.8-1.2l1.1-1l0.3-0.6l0.4-0.6
			l0.2-0.6c0.6-0.5,1.4-0.5,2.1-0.7l0.1-0.3l-0.4-0.7l0.3-0.9c-0.6-2.4-1.8-3.5-1.5-6.6l0.2-0.3l0.1-0.4l0.1-0.3l0.1-0.4l0.1-0.4
			v-0.7l0.1-0.5l0.1-1l0.1-0.3v-0.7l-0.1-0.4l-0.1-0.4l0.1-0.4l0.1-0.6l0-0.4h0l0-0.4c0.8-1.5,0.4-1.3,0.9-2.3l0.7-0.9l-0.2-0.6
			l-0.2-0.8l-0.1-1.7l0.7-1.8l1-0.3l1.3,0.7c0.9,0.2,1.3,1,1.9,1.4l0.1,0.3l0.4,0.7l0.2,0.5l-0.1,0.1v0.9l0.3,0.3l0.8-0.3v-1.3
			l-0.2-0.5l-0.1-0.4l-0.3-0.5c-0.5-0.6-1-1.2-1.6-1.6l-0.4-0.3l-1.2-0.8l1.2-0.7l0.4,0.2l0.1,0.3c0.7,0.7,1.3-0.5,2.2-0.3l0.2,0.4
			v0.3l0.6,0l2,0.1c0.8,0.5-0.5,0.6-0.3,1.2l1.7,0.5l-0.1,0.3l-0.2,0.3l0.1,0.3l1,0.4l0.3-0.3l-0.8-0.8l0.2-0.6l0.1,0l-0.1-0.2
			l-1-1.4l-0.3-0.4l-1-0.4l-0.7-0.6l0.1-0.9l1.6-1.3l0.4,0.2l0.4-0.2l0.1-0.2l0.1-1.1l0.1-0.2l0.1-0.5l0.2-0.6l0.1-0.5l0.1-0.2
			l0.1-0.5l0.1-0.3l-0.1-0.5l-0.4,0.3l-0.1,0.3l-0.1,0.4l-0.1,0.3l-0.3,1.1l-0.1,0.4l0-0.3l0.1-0.4V241l0.1,0l0.1-1.3l0.1-0.4
			c0.4-1.4,0.4-3,1.2-4.2l0.5-1l0.6-1.4c1.2-2.1,2.4-5.1,3.6-7.1l0.5-0.9l0.4-0.4l0,0.8l0.4,0.3l0.3-0.7l0.4-1.1l0.2-0.4l0.2-0.3
			l0.4-0.2l0.4,0.5l0.7-0.3l1.1-1.4l0.1-0.2l0.1-0.3l0.9-0.9l1.7,0.2l0.1,0.1l0.2,0.6l0.9-0.4c0.5-0.7,1.2-1.3,1.7-2
			c0.9-0.8,1.8-1.7,2.9-2.3l0.3,0.1l1.1-0.2c0.7-0.7,1.9-0.9,2.7-1.5c0.6-0.5,1.5-0.7,2.3-1.1c0.7-0.3,1.4-0.3,2-0.6
			c1.1-0.3,2-1,3-1.3c0.9-0.2,1.5-0.8,2.4-0.7c0.8-0.2,1.6-0.6,2.5-0.7c0.8-0.1,1.5-0.5,2.3-0.4l1.1-0.3c0.7-0.3,1.5-0.2,2.3-0.3
			c0.6-0.2,1.4-0.2,2.1-0.3c0.9-0.3,1.7,0.3,2.6,0.2c2.5-0.3,5.1,0.2,7.5,0.6c1,0.3,2.1,0.2,3.1,0.5l0.7,0.1l0.9,0.1l0.4,0.6
			l-0.1,0.3l0.9,0.8l-1.1,0.5l0,0.3c0.6,0.4,1.5,0.2,2.2,0.2l1.3,0.1l1.3-0.1l0.4,0.6l0.5,0.1l0.2-0.3l0.1-0.5l0.1-0.7
			c0.5-1.7,0.3-4,0.6-5.5v-1.4c-3.8-8.1-5-3.6-1-11.9l0.2-0.5c0-1.6,1.6-3.3,1.7-4.6l0.1-0.6l0.2-0.4l0.1-0.6h0.1l0-0.3
			c2.5-7.6,7.8-15.3,11.6-22.3l0.8-1.1l1.2,0.1l0.1,1.6l0.1,0l0.1,0.5l0.2,0.4l0.1,0.3l0.1,0.5l0.1,0.6l0.1,0.7l0.1,0.9l0.1,0.5v0.8
			l0.1,0.1l0.1,1.2h0l0.1,1c0.2,0.4,0.3,1.5,0.5,1.8v0.9l0.1,0v2.7l0.1,0.1l0.1,0.4l0.1,0.3l0.1,0.4l0.1,0.8v1.1l0.1,0.3l0.1,0.7
			l0.1,0.5l0.1,0.7l0.1,0.2l-0.1,0.2l0.1,0.7l0,1.9l0.1,0l0.1,1.7l0.1,0.7h0l-0.1,0.1c0,1.5,0.4,3.1,0.2,4l0,1.3l-0.1,0v0.7
			l-0.1,0.5v0.9l-0.1,0l-0.1,1.1l0.1,1v1.8l-0.1,0.4l0.1,0.5v0.8l-0.1,0.1v1l0,0.7l-0.1,0.4l-0.1,0.6l-0.1,0.5l-0.2,0.7
			c-0.6,0.9-1.7,1.2-2.8,1.2c-0.7,0-1.1,0.5-1.7,0.6c-0.7,0.3-1.5,0.4-2.2,0.6c-0.8,0.3-1.4,0.9-1.8,1.6l-0.1,0.3
			c0.2,4-1.8,5.7-1.8,7.9l0.3,0.3l0.8-0.6l0.1-0.3l0.1-0.4l1.1,0.3c0.9,0.2,1.5,0.7,2.1,1.2c1.2,0.7,2.4,1.6,3.8,2l0.5,0.2
			c0.7,0.1,1.2,0.5,1.9,0.6c0.9,0.6,2.1,0.9,2.8,1.7l-0.1,0.4l-1,0.2l-0.5,0.4l1.3,0.8l2.1,1.2c1.2,0.4,2,1.2,2.6,2.1l0.1,0.4
			l-0.2,0.1c-0.6-0.2-1.2-0.5-1.9-0.4l-0.6,0.4l0.8,0.4c1.2,0.3,2.3,0.8,3,1.6l1.2,1.1l1.1,1.1l0.8,0.9l0.7,0.8h0.4L204.2,234"/>
		<polygon id="XMLID_101_" class="st0" points="124.5,202.5 124.6,202.7 124.7,203.6 124.7,204.1 124.6,204.1 123.9,204.4 
			123.6,204.2 123.5,203.8 123.2,203 123.4,202.7 123.4,202.6 123.7,202.5 		"/>
	</g>
</g>
</svg>
